G04 DesignSpark PCB Gerber Version 10.0 Build 5299*
G04 #@! TF.Part,Single*
G04 #@! TF.FileFunction,Copper,L1,Top*
G04 #@! TF.FilePolarity,Positive*
%FSLAX35Y35*%
%MOIN*%
G04 #@! TA.AperFunction,ComponentPad*
%AMT70*0 Rounded Rectangle Pad at angle 0*4,1,56,-0.00984,-0.04921,0.00984,-0.04921,0.01222,-0.04907,0.01456,-0.04864,0.01682,-0.04793,0.01899,-0.04696,0.02103,-0.04573,0.02290,-0.04426,0.02458,-0.04258,0.02604,-0.04071,0.02727,-0.03868,0.02825,-0.03651,0.02896,-0.03424,0.02939,-0.03190,0.02953,-0.02953,0.02953,0.02953,0.02939,0.03190,0.02896,0.03424,0.02825,0.03651,0.02727,0.03868,0.02604,0.04071,0.02458,0.04258,0.02290,0.04426,0.02103,0.04573,0.01899,0.04696,0.01682,0.04793,0.01456,0.04864,0.01222,0.04907,0.00984,0.04921,-0.00984,0.04921,-0.01222,0.04907,-0.01456,0.04864,-0.01682,0.04793,-0.01899,0.04696,-0.02103,0.04573,-0.02290,0.04426,-0.02458,0.04258,-0.02604,0.04071,-0.02727,0.03868,-0.02825,0.03651,-0.02896,0.03424,-0.02939,0.03190,-0.02953,0.02953,-0.02953,-0.02953,-0.02939,-0.03190,-0.02896,-0.03424,-0.02825,-0.03651,-0.02727,-0.03868,-0.02604,-0.04071,-0.02458,-0.04258,-0.02290,-0.04426,-0.02103,-0.04573,-0.01899,-0.04696,-0.01682,-0.04793,-0.01456,-0.04864,-0.01222,-0.04907,-0.00984,-0.04921,0*%
%ADD70T70*%
G04 #@! TA.AperFunction,SMDPad,CuDef*
%ADD81R,0.01457X0.03543*%
%ADD80R,0.02165X0.04724*%
%ADD71R,0.02200X0.05900*%
%ADD28R,0.03071X0.03858*%
%ADD23R,0.03346X0.03937*%
G04 #@! TA.AperFunction,ComponentPad*
%ADD77R,0.09800X0.09800*%
%ADD72R,0.08000X0.08000*%
G04 #@! TD.AperFunction*
%ADD13C,0.01000*%
%ADD15C,0.01500*%
%ADD16C,0.02500*%
G04 #@! TA.AperFunction,ComponentPad*
%ADD74C,0.04331*%
G04 #@! TA.AperFunction,ViaPad*
%ADD19C,0.04800*%
G04 #@! TD.AperFunction*
%ADD17C,0.05000*%
G04 #@! TA.AperFunction,ComponentPad*
%ADD76C,0.05118*%
G04 #@! TA.AperFunction,ViaPad*
%ADD18C,0.05600*%
G04 #@! TA.AperFunction,SMDPad,CuDef*
%ADD20R,0.05900X0.02200*%
%ADD25R,0.04134X0.02362*%
%ADD27R,0.03858X0.03071*%
%ADD24R,0.03937X0.03346*%
%ADD29R,0.05512X0.03543*%
%ADD22R,0.04134X0.03937*%
%ADD21R,0.08661X0.04134*%
%ADD26R,0.05512X0.04724*%
G04 #@! TA.AperFunction,ComponentPad*
%ADD73C,0.08000*%
%ADD79C,0.09449*%
%ADD78C,0.09800*%
%ADD75C,0.25197*%
G04 #@! TD.AperFunction*
X0Y0D02*
D02*
D13*
X104974Y121510D02*
Y117179D01*
X102219Y114423D01*
X95919D01*
X92770Y111274D01*
X104974Y138833D02*
Y140407D01*
X99856Y145526D01*
X96707D01*
X94738Y147494D01*
X106943Y121510D02*
Y114423D01*
X99463Y106943D01*
X106943Y138833D02*
Y145919D01*
X102219Y150644D01*
X108911Y125841D02*
Y121510D01*
Y133321D02*
Y138833D01*
X110880Y121510D02*
Y109305D01*
X108124Y106549D01*
X110880Y138833D02*
Y153400D01*
X108518Y155762D01*
X112848Y121510D02*
Y115998D01*
X116785Y112061D01*
Y106549D01*
X112848Y138833D02*
Y148281D01*
X115998Y151431D01*
X154187Y123085D02*
X153006D01*
X146707Y129384D01*
X145526D01*
X172691Y100250D02*
Y103793D01*
X175053Y106156D01*
Y120329D01*
X175841Y100250D02*
Y103400D01*
X177415Y104974D01*
Y118754D01*
X178990Y100250D02*
Y103400D01*
X180959Y105368D01*
Y114423D01*
X182140Y103006D02*
X183715Y104581D01*
Y108911D01*
X185289Y102219D02*
X205368Y122297D01*
D02*
D15*
X9305Y136077D02*
Y143360D01*
X9699Y143754D01*
Y113045D02*
Y106156D01*
X8911Y105368D01*
X9699Y118951D02*
Y125841D01*
X8911Y126628D01*
X9699Y149659D02*
Y156943D01*
X9305Y157337D01*
X14620Y49463D02*
Y46116D01*
X7730Y39226D01*
X14620Y59699D02*
Y63439D01*
X8518Y69541D01*
X15998Y113045D02*
Y106549D01*
X17179Y105368D01*
X15998Y118951D02*
Y125053D01*
X17573Y126628D01*
X16785Y149659D02*
Y156943D01*
X16392Y157337D01*
X17573Y136077D02*
Y142967D01*
X16785Y143754D01*
X22100Y49463D02*
Y42179D01*
X19148Y39226D01*
X22100Y59699D02*
Y65801D01*
X18360Y69541D01*
X30171Y39620D02*
Y51431D01*
X27809D01*
X25841Y53400D01*
X18360D01*
Y49463D01*
X30171Y56943D02*
Y62061D01*
X28990Y63242D01*
Y69148D01*
X30171Y56943D02*
X26628D01*
X25447Y55762D01*
X18360D01*
Y59699D01*
X36077Y77809D02*
Y93557D01*
X41982Y15407D02*
Y8911D01*
Y21313D02*
Y28596D01*
X43951Y44344D02*
Y84108D01*
Y93557D01*
X49463Y15407D02*
Y10093D01*
X50644Y8911D01*
X49463Y21313D02*
Y27809D01*
X50250Y28596D01*
X52219Y84108D02*
Y93163D01*
X51825Y93557D01*
X60093Y71510D02*
Y84108D01*
Y93163D01*
X59699Y93557D01*
X64423Y22297D02*
Y28400D01*
Y40014D02*
Y34305D01*
X70329Y62455D02*
Y62848D01*
X67179Y65998D01*
Y93163D01*
X67573Y93557D01*
X75447Y82927D02*
Y93557D01*
X76825Y27809D02*
Y24463D01*
X78203Y23085D01*
X82140D01*
X86864Y18360D01*
Y12297D01*
X87100Y12061D01*
X76825Y35289D02*
X73478D01*
X71904Y33715D01*
Y23478D01*
X77022Y18360D01*
Y12140D01*
X77100Y12061D01*
X79187Y46707D02*
Y58518D01*
X78990Y58715D01*
X83321Y146707D02*
Y154187D01*
X90801Y161667D01*
Y172297D01*
X85388D02*
X90801D01*
Y175447D01*
X94344Y178990D01*
X98281D01*
X98675Y178596D01*
X103793Y31746D02*
X111077D01*
X116982D02*
X124266D01*
X119541Y126628D02*
Y119541D01*
Y126628D02*
X109699D01*
X108911Y125841D01*
X119541Y132140D02*
Y143557D01*
X119935Y143951D01*
X119541Y132140D02*
X110093D01*
X108911Y133321D01*
X123085Y52612D02*
X112061D01*
X106156Y46707D01*
X85093D01*
X137652Y31352D02*
Y33321D01*
X153793Y49463D01*
Y55368D01*
X137652Y123085D02*
X135289D01*
X132533Y125841D01*
Y130565D01*
X137652Y123085D02*
X145526D01*
X145919Y31746D02*
Y32927D01*
X160093Y47100D01*
Y55368D01*
X147100Y62061D02*
X143163D01*
X133321Y52219D01*
X123478D01*
X123085Y52612D01*
X147100Y65211D02*
X134896D01*
X130171Y60486D01*
X123085D01*
X147100Y68360D02*
X123085D01*
X147100Y71510D02*
X154974D01*
X147100Y74659D02*
X124659D01*
X123085Y76234D01*
X147100Y77809D02*
X141589D01*
X139620Y79778D01*
X147100Y80959D02*
X151825D01*
X155368Y84502D01*
X147100Y84108D02*
X123085D01*
X147100Y87258D02*
X141195D01*
X136470Y91982D01*
X123085D01*
X147100Y90407D02*
X143163D01*
X141589Y91982D01*
Y96707D01*
X138045Y100250D01*
X123478D01*
X123085Y99856D01*
X153793Y31746D02*
Y35289D01*
X163242Y44738D01*
Y55368D01*
X153793Y143951D02*
Y157730D01*
X156943Y55368D02*
Y62455D01*
Y100250D02*
Y106156D01*
Y110486D01*
X160093Y100250D02*
Y115604D01*
X158518Y117179D01*
X147100D01*
X145919Y118360D01*
Y122691D01*
X145526Y123085D01*
X161667Y31352D02*
Y38045D01*
X162061D01*
X166785Y42770D01*
Y54974D01*
X166392Y55368D01*
X162061Y128596D02*
X154974D01*
X154187Y129384D01*
X162061Y128596D02*
Y136077D01*
X163242Y100250D02*
Y116392D01*
X165998Y119148D01*
Y128596D01*
X162061D01*
X164817Y167179D02*
X131352D01*
X126234Y162061D01*
Y110880D01*
X132140Y104974D01*
X150250D01*
X151431Y106156D01*
X156943D01*
X166392Y100250D02*
Y108911D01*
Y100250D02*
Y93163D01*
X164030Y90801D01*
X169541Y55368D02*
Y63242D01*
Y100250D02*
Y106549D01*
X171904Y108911D01*
X171510Y41589D02*
Y38439D01*
X168754Y35683D01*
X171510Y47100D02*
Y49069D01*
X172691Y50250D01*
Y55368D01*
X171904Y108911D02*
Y114030D01*
X168360Y117573D01*
Y144738D01*
X176825D01*
X172691Y55368D02*
Y58911D01*
X174659Y60880D01*
Y86864D01*
X169541Y91982D01*
Y100250D01*
X175053Y120329D02*
X173085Y122297D01*
X175841Y31352D02*
Y39620D01*
Y55368D01*
X177415Y118754D02*
X180959Y122297D01*
Y114423D02*
X188833Y122297D01*
X182140Y100250D02*
Y103006D01*
X182730Y144738D02*
X193163D01*
X183715Y31352D02*
Y44738D01*
X179384Y49069D01*
Y54974D01*
X178990Y55368D01*
X183715Y108911D02*
X197100Y122297D01*
X185289Y100250D02*
Y102219D01*
X191589Y31352D02*
Y47100D01*
X190014Y48675D01*
X184108D01*
X182140Y50644D01*
Y55368D01*
X191982Y68360D02*
X197100D01*
X198281Y67179D01*
X234108D01*
X237652Y63636D01*
X191982Y71510D02*
X197494D01*
X198675Y70329D01*
X222691D01*
X224266Y71904D01*
X237258D01*
X237652Y71510D01*
X191982Y74659D02*
X198675D01*
X200250Y73085D01*
X219148D01*
X223478Y77415D01*
X249069D01*
X255762Y70722D01*
X268518D01*
X268754Y70486D01*
X191982Y77809D02*
X199856D01*
X202219Y75447D01*
X217179D01*
X221904Y80171D01*
X268439D01*
X268754Y80486D01*
X191982Y80959D02*
X184502D01*
X191982Y84108D02*
X213242D01*
Y82533D01*
X191982Y90407D02*
X179384D01*
X191982Y93557D02*
X205368D01*
X193163Y144738D02*
Y157730D01*
Y167179D01*
X199463Y31352D02*
Y51037D01*
X195132Y55368D01*
X185289D01*
X200250Y59305D02*
X210093D01*
X213636Y55762D01*
Y51628D01*
X201037Y130171D02*
X174659D01*
X173085Y128596D01*
Y122297D01*
X201037Y138045D02*
X219738D01*
X208715Y112455D02*
Y115407D01*
X211274Y117967D01*
X208715Y112455D02*
Y107140D01*
X210880Y104974D01*
Y95132D01*
X209305Y93557D01*
X205368D01*
X213636Y35093D02*
X219935D01*
X220329Y35486D01*
X213636Y45722D02*
Y35093D01*
Y51628D02*
X221707D01*
X221904Y51431D01*
X220329Y28006D02*
X214817D01*
X213636Y29187D01*
X220329Y84502D02*
Y85683D01*
X223872Y89226D01*
X228203D01*
Y91589D01*
X220329Y84502D02*
X219541D01*
X216392Y87652D01*
X209305D01*
X208911Y87258D01*
X191982D01*
X225644Y138045D02*
Y152809D01*
X220722Y157730D01*
X226825Y112455D02*
X237652D01*
X227022Y102219D02*
Y112258D01*
X226825Y112455D01*
X227022Y106943D02*
Y102219D01*
X228990Y31746D02*
X232533D01*
X240407Y23872D01*
X232140Y85289D02*
Y84896D01*
X228596D01*
Y84502D01*
X225841D01*
X237652Y102612D02*
Y112455D01*
X244935D01*
X246313Y85683D02*
Y95526D01*
X261274Y110486D01*
X268754D01*
X250250Y23872D02*
X260093D01*
X265211D01*
X269935Y28596D01*
Y36667D01*
X270132Y36864D01*
X268754Y100486D02*
X277848D01*
X281352Y103990D01*
X268754Y110486D02*
X280762D01*
X281352Y109896D01*
X291589Y40407D02*
Y47691D01*
Y53596D02*
Y58911D01*
X293163Y60486D01*
Y76628D02*
Y68360D01*
X307730Y76234D02*
Y68360D01*
X308911Y40014D02*
Y47691D01*
Y53596D02*
Y59305D01*
X307730Y60486D01*
D02*
D16*
X73498Y172297D02*
X79384D01*
X78990Y66195D02*
X90998D01*
X93951Y63242D01*
X78990Y160486D02*
Y166096D01*
X79384Y166490D01*
Y172297D01*
Y178104D01*
X82730Y27809D02*
X92376D01*
X96707Y23478D01*
Y12455D01*
X97100Y12061D01*
X82730Y27809D02*
Y35289D01*
X138045Y130565D02*
Y153793D01*
X134108Y157730D01*
X145526Y129384D02*
X139226D01*
X138045Y130565D01*
X151431Y110486D02*
X138833D01*
X154187Y123085D02*
X162061D01*
X176825Y144738D02*
Y147297D01*
X182533Y153006D01*
Y191589D01*
X205368Y99069D02*
X201431D01*
X199069Y101431D01*
X214620Y112455D02*
X220919D01*
X220329Y20722D02*
Y28006D01*
X220919Y112455D02*
Y125447D01*
X221510Y102219D02*
X216392D01*
X229778Y40801D02*
X235289Y46313D01*
X267179D01*
X278990Y58124D01*
Y92376D01*
X286470Y99856D01*
Y103793D01*
X250250Y143557D02*
Y141785D01*
X254384Y137652D01*
X250841Y112455D02*
Y118754D01*
X254384Y137652D02*
Y130171D01*
X279778D01*
X260289Y137652D02*
Y157533D01*
X260093Y157730D01*
X264226Y36864D02*
X258911D01*
X277022Y47888D02*
Y48281D01*
X284502Y55762D01*
Y89620D01*
X299463Y104581D01*
Y110093D01*
X277022Y47888D02*
Y19541D01*
X271904Y14423D01*
X249856D01*
X240407Y23872D01*
X279778Y141982D02*
Y130171D01*
X281352Y103990D02*
X281549Y103793D01*
X286470D01*
Y128990D01*
X287652Y130171D01*
X279778D01*
X299463Y110093D02*
Y125447D01*
D02*
D17*
X51825Y146707D02*
Y186864D01*
X56549Y191589D01*
X182533D01*
X75447Y146707D02*
Y156943D01*
X78990Y160486D01*
X97100Y12061D02*
X228596D01*
X240407Y23872D01*
X182533Y191589D02*
X240801D01*
X250250Y182140D01*
Y143557D01*
D02*
D18*
X93951Y63242D03*
X138833Y110486D03*
X164030Y90801D03*
X168754Y35683D03*
X169541Y63242D03*
X199069Y101431D03*
X216392Y102219D03*
X220329Y20722D03*
X220919Y125447D03*
X229778Y40801D03*
X232140Y85289D03*
X250841Y118754D03*
X258911Y36864D03*
X299463Y125447D03*
D02*
D19*
X43951Y44344D03*
X60093Y71510D03*
X139620Y79778D03*
X154974Y71510D03*
X155368Y84502D03*
X156943Y62455D03*
X164817Y167179D03*
X179384Y90407D03*
X184502Y80959D03*
X193163Y167179D03*
X200250Y59305D03*
X211274Y117967D03*
X213242Y82533D03*
X227022Y106943D03*
X228203Y91589D03*
X246313Y85683D03*
D02*
D70*
X28203Y93557D03*
Y146707D03*
X36077Y93557D03*
Y146707D03*
X43951Y93557D03*
Y146707D03*
X51825Y93557D03*
Y146707D03*
X59699Y93557D03*
Y146707D03*
X67573Y93557D03*
Y146707D03*
X75447Y93557D03*
Y146707D03*
X83321Y93557D03*
Y146707D03*
D02*
D71*
X153793Y55368D03*
Y100250D03*
X156943Y55368D03*
Y100250D03*
X160093Y55368D03*
Y100250D03*
X163242Y55368D03*
Y100250D03*
X166392Y55368D03*
Y100250D03*
X169541Y55368D03*
Y100250D03*
X172691Y55368D03*
Y100250D03*
X175841Y55368D03*
Y100250D03*
X178990Y55368D03*
Y100250D03*
X182140Y55368D03*
Y100250D03*
X185289Y55368D03*
Y100250D03*
D02*
D20*
X147100Y62061D03*
Y65211D03*
Y68360D03*
Y71510D03*
Y74659D03*
Y77809D03*
Y80959D03*
Y84108D03*
Y87258D03*
Y90407D03*
Y93557D03*
X191982Y62061D03*
Y65211D03*
Y68360D03*
Y71510D03*
Y74659D03*
Y77809D03*
Y80959D03*
Y84108D03*
Y87258D03*
Y90407D03*
Y93557D03*
D02*
D21*
X79384Y166490D03*
Y178104D03*
D02*
D22*
X73498Y172297D03*
X85388D03*
D02*
D23*
X76825Y27809D03*
Y35289D03*
X79187Y46707D03*
X82730Y27809D03*
Y35289D03*
X85093Y46707D03*
X111077Y31746D03*
X116982D03*
X176825Y144738D03*
X182730D03*
X208715Y112455D03*
X214620D03*
X219738Y138045D03*
X220919Y112455D03*
X225644Y138045D03*
X226825Y112455D03*
X244935D03*
X250841D03*
X254384Y137652D03*
X260289D03*
X264226Y36864D03*
X270132D03*
D02*
D24*
X9699Y113045D03*
Y118951D03*
Y143754D03*
Y149659D03*
X15998Y113045D03*
Y118951D03*
X16785Y143754D03*
Y149659D03*
X41982Y15407D03*
Y21313D03*
X49463Y15407D03*
Y21313D03*
X64423Y28400D03*
Y34305D03*
X213636Y29187D03*
Y35093D03*
Y45722D03*
Y51628D03*
X281352Y103990D03*
Y109896D03*
X291589Y47691D03*
Y53596D03*
X308911Y47691D03*
Y53596D03*
D02*
D25*
X70329Y62455D03*
X78990Y58715D03*
Y66195D03*
X220329Y28006D03*
Y35486D03*
X228990Y31746D03*
D02*
D26*
X145526Y123085D03*
Y129384D03*
X154187Y123085D03*
Y129384D03*
D02*
D27*
X30171Y51431D03*
Y56943D03*
X119541Y126628D03*
Y132140D03*
X162061Y123085D03*
Y128596D03*
X171510Y41589D03*
Y47100D03*
X205368Y93557D03*
Y99069D03*
D02*
D28*
X132533Y130565D03*
X138045D03*
X151431Y110486D03*
X156943D03*
X166392Y108911D03*
X171904D03*
X220329Y84502D03*
X221510Y102219D03*
X225841Y84502D03*
X227022Y102219D03*
D02*
D29*
X201037Y130171D03*
Y138045D03*
X293163Y60486D03*
Y68360D03*
X307730Y60486D03*
Y68360D03*
D02*
D72*
X97100Y12061D03*
X268754Y110486D03*
D02*
D73*
X67100Y12061D03*
X77100D03*
X87100D03*
X268754Y60486D03*
Y70486D03*
Y80486D03*
Y90486D03*
Y100486D03*
D02*
D74*
X7730Y39226D03*
X8518Y69541D03*
X8911Y105368D03*
Y126628D03*
X9305Y136077D03*
Y157337D03*
X16392D03*
X17179Y105368D03*
X17573Y126628D03*
Y136077D03*
X18360Y69541D03*
X19148Y39226D03*
X28203Y156943D03*
X28990Y69148D03*
X30171Y39620D03*
X36077Y77809D03*
Y156943D03*
X41982Y8911D03*
Y28596D03*
X43951Y84108D03*
Y156943D03*
X50250Y28596D03*
X50644Y8911D03*
X52219Y84108D03*
X59699Y156943D03*
X60093Y84108D03*
X64423Y22297D03*
Y40014D03*
X67573Y156943D03*
X75447Y82927D03*
X92770Y111274D03*
X94738Y147494D03*
X99463Y106943D03*
X102219Y150644D03*
X103793Y31746D03*
X108124Y106549D03*
X108518Y155762D03*
X115998Y151431D03*
X116785Y106549D03*
X119541Y119541D03*
X119935Y143951D03*
X123085Y52612D03*
Y60486D03*
Y68360D03*
Y76234D03*
Y84108D03*
Y91982D03*
Y99856D03*
X124266Y31746D03*
X137652Y31352D03*
Y123085D03*
X145919Y31746D03*
X153793D03*
Y143951D03*
X161667Y31352D03*
X162061Y136077D03*
X173085Y122297D03*
X175841Y31352D03*
X180959Y122297D03*
X183715Y31352D03*
X188833Y122297D03*
X191589Y31352D03*
X193163Y144738D03*
X197100Y122297D03*
X199463Y31352D03*
X205368Y122297D03*
X221904Y51431D03*
X237652Y63636D03*
Y71510D03*
Y102612D03*
X240407Y23872D03*
X250250D03*
X260093D03*
X291589Y40407D03*
X293163Y76628D03*
X307730Y76234D03*
X308911Y40014D03*
D02*
D75*
X15998Y15998D03*
Y181352D03*
X299463Y15998D03*
Y181352D03*
D02*
D76*
X98675Y178596D03*
D02*
D77*
X193163Y157730D03*
X260093D03*
D02*
D78*
X134108D03*
X153793D03*
X173478D03*
X220722D03*
X240407D03*
D02*
D79*
X279778Y141982D03*
X299463Y110093D03*
Y141982D03*
D02*
D80*
X14620Y49463D03*
Y59699D03*
X18360Y49463D03*
Y59699D03*
X22100Y49463D03*
Y59699D03*
D02*
D81*
X104974Y121510D03*
Y138833D03*
X106943Y121510D03*
Y138833D03*
X108911Y121510D03*
Y138833D03*
X110880Y121510D03*
Y138833D03*
X112848Y121510D03*
Y138833D03*
X0Y0D02*
M02*
