G04 DesignSpark PCB Gerber Version 10.0 Build 5299*
G04 #@! TF.Part,Single*
G04 #@! TF.FileFunction,Drillmap*
G04 #@! TF.FilePolarity,Positive*
%FSLAX35Y35*%
%MOIN*%
%ADD10C,0.00500*%
G04 #@! TA.AperFunction,ViaPad*
%ADD124C,0.10000*%
G04 #@! TD.AperFunction*
X0Y0D02*
D02*
D10*
X17730Y45164D02*
Y48914D01*
X20856D01*
X20230Y47039D02*
X17730D01*
Y45164D02*
X20856D01*
X18518Y75479D02*
Y79229D01*
X21643D01*
X21018Y77354D02*
X18518D01*
Y75479D02*
X21643D01*
X18911Y111306D02*
Y115056D01*
X22037D01*
X21411Y113181D02*
X18911D01*
Y111306D02*
X22037D01*
X18911Y132565D02*
Y136315D01*
X22037D01*
X21411Y134441D02*
X18911D01*
Y132565D02*
X22037D01*
X19305Y142014D02*
Y145764D01*
X22430D01*
X21805Y143889D02*
X19305D01*
Y142014D02*
X22430D01*
X19305Y163274D02*
Y167024D01*
X22430D01*
X21805Y165149D02*
X19305D01*
Y163274D02*
X22430D01*
X25998Y21935D02*
Y25685D01*
X29123D01*
X28498Y23811D02*
X25998D01*
Y187290D02*
Y191040D01*
X29123D01*
X28498Y189165D02*
X25998D01*
X26392Y163274D02*
Y167024D01*
X29517D01*
X28892Y165149D02*
X26392D01*
Y163274D02*
X29517D01*
X27179Y111306D02*
Y115056D01*
X30304D01*
X29679Y113181D02*
X27179D01*
Y111306D02*
X30304D01*
X27573Y132565D02*
Y136315D01*
X30698D01*
X30073Y134441D02*
X27573D01*
Y132565D02*
X30698D01*
X27573Y142014D02*
Y145764D01*
X30698D01*
X30073Y143889D02*
X27573D01*
Y142014D02*
X30698D01*
X28360Y75479D02*
Y79229D01*
X31485D01*
X30860Y77354D02*
X28360D01*
Y75479D02*
X31485D01*
X29148Y45164D02*
Y48914D01*
X32273D01*
X31648Y47039D02*
X29148D01*
Y45164D02*
X32273D01*
X38203Y99494D02*
Y103244D01*
X40078D01*
X40703Y102932D01*
X41015Y102620D01*
X41328Y101994D01*
Y100744D01*
X41015Y100120D01*
X40703Y99807D01*
X40078Y99494D01*
X38203D01*
Y152644D02*
Y156394D01*
X40078D01*
X40703Y156082D01*
X41015Y155769D01*
X41328Y155144D01*
Y153894D01*
X41015Y153269D01*
X40703Y152957D01*
X40078Y152644D01*
X38203D01*
Y162880D02*
Y166630D01*
X41328D01*
X40703Y164756D02*
X38203D01*
Y162880D02*
X41328D01*
X38990Y75085D02*
Y78835D01*
X42115D01*
X41490Y76960D02*
X38990D01*
Y75085D02*
X42115D01*
X40171Y45557D02*
Y49307D01*
X43296D01*
X42671Y47433D02*
X40171D01*
Y45557D02*
X43296D01*
X46077Y83746D02*
Y87496D01*
X49202D01*
X48577Y85622D02*
X46077D01*
Y83746D02*
X49202D01*
X46077Y99494D02*
Y103244D01*
X47952D01*
X48577Y102932D01*
X48889Y102620D01*
X49202Y101994D01*
Y100744D01*
X48889Y100120D01*
X48577Y99807D01*
X47952Y99494D01*
X46077D01*
Y152644D02*
Y156394D01*
X47952D01*
X48577Y156082D01*
X48889Y155769D01*
X49202Y155144D01*
Y153894D01*
X48889Y153269D01*
X48577Y152957D01*
X47952Y152644D01*
X46077D01*
Y162880D02*
Y166630D01*
X49202D01*
X48577Y164756D02*
X46077D01*
Y162880D02*
X49202D01*
X51982Y14849D02*
Y18599D01*
X55107D01*
X54482Y16724D02*
X51982D01*
Y14849D02*
X55107D01*
X51982Y34534D02*
Y38284D01*
X55107D01*
X54482Y36409D02*
X51982D01*
Y34534D02*
X55107D01*
X56138Y52157D02*
X56763Y51844D01*
X57076Y51220D01*
X56763Y50594D01*
X56138Y50282D01*
X53951D01*
Y54032D01*
X56138D01*
X56763Y53720D01*
X57076Y53094D01*
X56763Y52470D01*
X56138Y52157D01*
X53951D01*
Y90046D02*
Y93796D01*
X57076D01*
X56451Y91921D02*
X53951D01*
Y90046D02*
X57076D01*
X53951Y99494D02*
Y103244D01*
X55826D01*
X56451Y102932D01*
X56763Y102620D01*
X57076Y101994D01*
Y100744D01*
X56763Y100120D01*
X56451Y99807D01*
X55826Y99494D01*
X53951D01*
Y152644D02*
Y156394D01*
X55826D01*
X56451Y156082D01*
X56763Y155769D01*
X57076Y155144D01*
Y153894D01*
X56763Y153269D01*
X56451Y152957D01*
X55826Y152644D01*
X53951D01*
Y162880D02*
Y166630D01*
X57076D01*
X56451Y164756D02*
X53951D01*
Y162880D02*
X57076D01*
X60250Y34534D02*
Y38284D01*
X63375D01*
X62750Y36409D02*
X60250D01*
Y34534D02*
X63375D01*
X60644Y14849D02*
Y18599D01*
X63769D01*
X63144Y16724D02*
X60644D01*
Y14849D02*
X63769D01*
X61825Y99494D02*
Y103244D01*
X63700D01*
X64325Y102932D01*
X64637Y102620D01*
X64950Y101994D01*
Y100744D01*
X64637Y100120D01*
X64325Y99807D01*
X63700Y99494D01*
X61825D01*
Y152644D02*
Y156394D01*
X63700D01*
X64325Y156082D01*
X64637Y155769D01*
X64950Y155144D01*
Y153894D01*
X64637Y153269D01*
X64325Y152957D01*
X63700Y152644D01*
X61825D01*
X62219Y90046D02*
Y93796D01*
X65344D01*
X64719Y91921D02*
X62219D01*
Y90046D02*
X65344D01*
X69699Y99494D02*
Y103244D01*
X71574D01*
X72199Y102932D01*
X72511Y102620D01*
X72824Y101994D01*
Y100744D01*
X72511Y100120D01*
X72199Y99807D01*
X71574Y99494D01*
X69699D01*
Y152644D02*
Y156394D01*
X71574D01*
X72199Y156082D01*
X72511Y155769D01*
X72824Y155144D01*
Y153894D01*
X72511Y153269D01*
X72199Y152957D01*
X71574Y152644D01*
X69699D01*
Y162880D02*
Y166630D01*
X72824D01*
X72199Y164756D02*
X69699D01*
Y162880D02*
X72824D01*
X72280Y79322D02*
X72905Y79010D01*
X73218Y78385D01*
X72905Y77760D01*
X72280Y77447D01*
X70093D01*
Y81197D01*
X72280D01*
X72905Y80885D01*
X73218Y80260D01*
X72905Y79635D01*
X72280Y79322D01*
X70093D01*
Y90046D02*
Y93796D01*
X73218D01*
X72593Y91921D02*
X70093D01*
Y90046D02*
X73218D01*
X74423Y28235D02*
Y31985D01*
X77548D01*
X76923Y30110D02*
X74423D01*
Y28235D02*
X77548D01*
X74423Y45951D02*
Y49701D01*
X77548D01*
X76923Y47826D02*
X74423D01*
Y45951D02*
X77548D01*
X77100Y17998D02*
Y21748D01*
X78976D01*
X79600Y21436D01*
X79913Y21124D01*
X80226Y20498D01*
Y19248D01*
X79913Y18624D01*
X79600Y18311D01*
X78976Y17998D01*
X77100D01*
X77573Y99494D02*
Y103244D01*
X79448D01*
X80073Y102932D01*
X80385Y102620D01*
X80698Y101994D01*
Y100744D01*
X80385Y100120D01*
X80073Y99807D01*
X79448Y99494D01*
X77573D01*
Y152644D02*
Y156394D01*
X79448D01*
X80073Y156082D01*
X80385Y155769D01*
X80698Y155144D01*
Y153894D01*
X80385Y153269D01*
X80073Y152957D01*
X79448Y152644D01*
X77573D01*
Y162880D02*
Y166630D01*
X80698D01*
X80073Y164756D02*
X77573D01*
Y162880D02*
X80698D01*
X85447Y88865D02*
Y92615D01*
X88572D01*
X87947Y90740D02*
X85447D01*
Y88865D02*
X88572D01*
X85447Y99494D02*
Y103244D01*
X87322D01*
X87947Y102932D01*
X88259Y102620D01*
X88572Y101994D01*
Y100744D01*
X88259Y100120D01*
X87947Y99807D01*
X87322Y99494D01*
X85447D01*
Y152644D02*
Y156394D01*
X87322D01*
X87947Y156082D01*
X88259Y155769D01*
X88572Y155144D01*
Y153894D01*
X88259Y153269D01*
X87947Y152957D01*
X87322Y152644D01*
X85447D01*
X87100Y17998D02*
Y21748D01*
X88976D01*
X89600Y21436D01*
X89913Y21124D01*
X90226Y20498D01*
Y19248D01*
X89913Y18624D01*
X89600Y18311D01*
X88976Y17998D01*
X87100D01*
X93321Y99494D02*
Y103244D01*
X95196D01*
X95821Y102932D01*
X96133Y102620D01*
X96446Y101994D01*
Y100744D01*
X96133Y100120D01*
X95821Y99807D01*
X95196Y99494D01*
X93321D01*
Y152644D02*
Y156394D01*
X95196D01*
X95821Y156082D01*
X96133Y155769D01*
X96446Y155144D01*
Y153894D01*
X96133Y153269D01*
X95821Y152957D01*
X95196Y152644D01*
X93321D01*
X97100Y17998D02*
Y21748D01*
X98976D01*
X99600Y21436D01*
X99913Y21124D01*
X100226Y20498D01*
Y19248D01*
X99913Y18624D01*
X99600Y18311D01*
X98976Y17998D01*
X97100D01*
X102770Y117211D02*
Y120961D01*
X105895D01*
X105270Y119086D02*
X102770D01*
Y117211D02*
X105895D01*
X103951Y72930D02*
Y69180D01*
X107076D01*
X104738Y153431D02*
Y157181D01*
X107863D01*
X107238Y155307D02*
X104738D01*
Y153431D02*
X107863D01*
X107100Y17998D02*
Y21748D01*
X108976D01*
X109600Y21436D01*
X109913Y21124D01*
X110226Y20498D01*
Y19248D01*
X109913Y18624D01*
X109600Y18311D01*
X108976Y17998D01*
X107100D01*
X108675Y185159D02*
X108988Y184846D01*
X109613Y184534D01*
X110238Y184846D01*
X110550Y185159D01*
Y188284D01*
X111175D01*
X110550D02*
X109300D01*
X109463Y112880D02*
Y116630D01*
X112588D01*
X111963Y114756D02*
X109463D01*
Y112880D02*
X112588D01*
X112219Y156581D02*
Y160331D01*
X115344D01*
X114719Y158456D02*
X112219D01*
Y156581D02*
X115344D01*
X113793Y37683D02*
Y41433D01*
X116919D01*
X116293Y39559D02*
X113793D01*
Y37683D02*
X116919D01*
X118124Y112487D02*
Y116237D01*
X121249D01*
X120624Y114362D02*
X118124D01*
Y112487D02*
X121249D01*
X118518Y161699D02*
Y165449D01*
X121643D01*
X121018Y163574D02*
X118518D01*
Y161699D02*
X121643D01*
X125998Y157369D02*
Y161119D01*
X129123D01*
X128498Y159244D02*
X125998D01*
Y157369D02*
X129123D01*
X126785Y112487D02*
Y116237D01*
X129911D01*
X129285Y114362D02*
X126785D01*
Y112487D02*
X129911D01*
X129541Y125479D02*
Y129229D01*
X132667D01*
X132041Y127354D02*
X129541D01*
Y125479D02*
X132667D01*
X129935Y149888D02*
Y153638D01*
X133060D01*
X132435Y151763D02*
X129935D01*
Y149888D02*
X133060D01*
X133085Y58550D02*
Y62300D01*
X136210D01*
X135585Y60425D02*
X133085D01*
Y58550D02*
X136210D01*
X133085Y66424D02*
Y70174D01*
X136210D01*
X135585Y68299D02*
X133085D01*
Y66424D02*
X136210D01*
X133085Y74298D02*
Y78048D01*
X136210D01*
X135585Y76173D02*
X133085D01*
Y74298D02*
X136210D01*
X133085Y82172D02*
Y85922D01*
X136210D01*
X135585Y84047D02*
X133085D01*
Y82172D02*
X136210D01*
X133085Y90046D02*
Y93796D01*
X136210D01*
X135585Y91921D02*
X133085D01*
Y90046D02*
X136210D01*
X133085Y97920D02*
Y101670D01*
X136210D01*
X135585Y99795D02*
X133085D01*
Y97920D02*
X136210D01*
X133085Y105794D02*
Y109544D01*
X136210D01*
X135585Y107669D02*
X133085D01*
Y105794D02*
X136210D01*
X134266Y37683D02*
Y41433D01*
X137391D01*
X136766Y39559D02*
X134266D01*
Y37683D02*
X137391D01*
X144108Y164918D02*
Y166168D01*
X144421Y166793D01*
X144733Y167106D01*
X145358Y167418D01*
X145983D01*
X146608Y167106D01*
X146921Y166793D01*
X147233Y166168D01*
Y164918D01*
X146921Y164293D01*
X146608Y163980D01*
X145983Y163668D01*
X145358D01*
X144733Y163980D01*
X144421Y164293D01*
X144108Y164918D01*
X147652Y37290D02*
Y41040D01*
X150777D01*
X150152Y39165D02*
X147652D01*
Y37290D02*
X150777D01*
X147652Y129022D02*
Y132772D01*
X150777D01*
X150152Y130897D02*
X147652D01*
Y129022D02*
X150777D01*
X148833Y120174D02*
Y116424D01*
X151958D01*
X151807Y87590D02*
X152433Y87278D01*
X152745Y86653D01*
X152433Y86028D01*
X151807Y85715D01*
X149620D01*
Y89465D01*
X151807D01*
X152433Y89153D01*
X152745Y88528D01*
X152433Y87903D01*
X151807Y87590D01*
X149620D01*
X155919Y37683D02*
Y41433D01*
X159044D01*
X158419Y39559D02*
X155919D01*
Y37683D02*
X159044D01*
X163793D02*
Y41433D01*
X166919D01*
X166293Y39559D02*
X163793D01*
Y37683D02*
X166919D01*
X163793Y149888D02*
Y153638D01*
X166919D01*
X166293Y151763D02*
X163793D01*
Y149888D02*
X166919D01*
X163793Y164918D02*
Y166168D01*
X164106Y166793D01*
X164419Y167106D01*
X165043Y167418D01*
X165669D01*
X166293Y167106D01*
X166606Y166793D01*
X166919Y166168D01*
Y164918D01*
X166606Y164293D01*
X166293Y163980D01*
X165669Y163668D01*
X165043D01*
X164419Y163980D01*
X164106Y164293D01*
X163793Y164918D01*
X167162Y79322D02*
X167787Y79010D01*
X168100Y78385D01*
X167787Y77760D01*
X167162Y77447D01*
X164974D01*
Y81197D01*
X167162D01*
X167787Y80885D01*
X168100Y80260D01*
X167787Y79635D01*
X167162Y79322D01*
X164974D01*
X167556Y92315D02*
X168181Y92002D01*
X168493Y91377D01*
X168181Y90752D01*
X167556Y90439D01*
X165368D01*
Y94189D01*
X167556D01*
X168181Y93877D01*
X168493Y93252D01*
X168181Y92627D01*
X167556Y92315D01*
X165368D01*
X169130Y70267D02*
X169756Y69955D01*
X170068Y69330D01*
X169756Y68705D01*
X169130Y68392D01*
X166943D01*
Y72142D01*
X169130D01*
X169756Y71830D01*
X170068Y71205D01*
X169756Y70580D01*
X169130Y70267D01*
X166943D01*
X171667Y37290D02*
Y41040D01*
X174793D01*
X174167Y39165D02*
X171667D01*
Y37290D02*
X174793D01*
X172061Y142014D02*
Y145764D01*
X175186D01*
X174561Y143889D02*
X172061D01*
Y142014D02*
X175186D01*
X174030Y100489D02*
Y96739D01*
X177155D01*
X177004Y174992D02*
X177630Y174679D01*
X177942Y174054D01*
X177630Y173429D01*
X177004Y173117D01*
X174817D01*
Y176867D01*
X177004D01*
X177630Y176554D01*
X177942Y175929D01*
X177630Y175304D01*
X177004Y174992D01*
X174817D01*
X178754Y45370D02*
Y41620D01*
X181879D01*
X179541Y72930D02*
Y69180D01*
X182667D01*
X183085Y128235D02*
Y131985D01*
X186210D01*
X185585Y130110D02*
X183085D01*
Y128235D02*
X186210D01*
X183478Y164918D02*
Y166168D01*
X183791Y166793D01*
X184104Y167106D01*
X184728Y167418D01*
X185354D01*
X185978Y167106D01*
X186291Y166793D01*
X186604Y166168D01*
Y164918D01*
X186291Y164293D01*
X185978Y163980D01*
X185354Y163668D01*
X184728D01*
X184104Y163980D01*
X183791Y164293D01*
X183478Y164918D01*
X185841Y37290D02*
Y41040D01*
X188966D01*
X188341Y39165D02*
X185841D01*
Y37290D02*
X188966D01*
X191571Y98220D02*
X192196Y97907D01*
X192509Y97283D01*
X192196Y96657D01*
X191571Y96345D01*
X189384D01*
Y100095D01*
X191571D01*
X192196Y99783D01*
X192509Y99157D01*
X192196Y98533D01*
X191571Y98220D01*
X189384D01*
X190959Y128235D02*
Y131985D01*
X194084D01*
X193459Y130110D02*
X190959D01*
Y128235D02*
X194084D01*
X193715Y37290D02*
Y41040D01*
X196840D01*
X196215Y39165D02*
X193715D01*
Y37290D02*
X196840D01*
X196689Y88771D02*
X197315Y88459D01*
X197627Y87834D01*
X197315Y87209D01*
X196689Y86896D01*
X194502D01*
Y90646D01*
X196689D01*
X197315Y90334D01*
X197627Y89709D01*
X197315Y89084D01*
X196689Y88771D01*
X194502D01*
X198833Y128235D02*
Y131985D01*
X201958D01*
X201333Y130110D02*
X198833D01*
Y128235D02*
X201958D01*
X201589Y37290D02*
Y41040D01*
X204714D01*
X204089Y39165D02*
X201589D01*
Y37290D02*
X204714D01*
X203163Y150676D02*
Y154426D01*
X206289D01*
X205663Y152551D02*
X203163D01*
Y150676D02*
X206289D01*
X203163Y164918D02*
Y166168D01*
X203476Y166793D01*
X203789Y167106D01*
X204413Y167418D01*
X205039D01*
X205663Y167106D01*
X205976Y166793D01*
X206289Y166168D01*
Y164918D01*
X205976Y164293D01*
X205663Y163980D01*
X205039Y163668D01*
X204413D01*
X203789Y163980D01*
X203476Y164293D01*
X203163Y164918D01*
X205351Y174992D02*
X205976Y174679D01*
X206289Y174054D01*
X205976Y173429D01*
X205351Y173117D01*
X203163D01*
Y176867D01*
X205351D01*
X205976Y176554D01*
X206289Y175929D01*
X205976Y175304D01*
X205351Y174992D01*
X203163D01*
X207100Y128235D02*
Y131985D01*
X210226D01*
X209600Y130110D02*
X207100D01*
Y128235D02*
X210226D01*
X209069Y111119D02*
Y107369D01*
X212194D01*
X209463Y37290D02*
Y41040D01*
X212588D01*
X211963Y39165D02*
X209463D01*
Y37290D02*
X212588D01*
X212437Y67118D02*
X213063Y66805D01*
X213375Y66180D01*
X213063Y65555D01*
X212437Y65243D01*
X210250D01*
Y68993D01*
X212437D01*
X213063Y68680D01*
X213375Y68055D01*
X213063Y67430D01*
X212437Y67118D01*
X210250D01*
X215368Y128235D02*
Y131985D01*
X218493D01*
X217868Y130110D02*
X215368D01*
Y128235D02*
X218493D01*
X223461Y125779D02*
X224086Y125467D01*
X224399Y124842D01*
X224086Y124217D01*
X223461Y123904D01*
X221274D01*
Y127654D01*
X223461D01*
X224086Y127342D01*
X224399Y126717D01*
X224086Y126092D01*
X223461Y125779D01*
X221274D01*
X225430Y90346D02*
X226055Y90033D01*
X226367Y89409D01*
X226055Y88783D01*
X225430Y88471D01*
X223242D01*
Y92221D01*
X225430D01*
X226055Y91909D01*
X226367Y91283D01*
X226055Y90659D01*
X225430Y90346D01*
X223242D01*
X226392Y111906D02*
Y108156D01*
X229517D01*
X230329Y30410D02*
Y26660D01*
X233454D01*
X230722Y164918D02*
Y166168D01*
X231035Y166793D01*
X231348Y167106D01*
X231972Y167418D01*
X232598D01*
X233222Y167106D01*
X233535Y166793D01*
X233848Y166168D01*
Y164918D01*
X233535Y164293D01*
X233222Y163980D01*
X232598Y163668D01*
X231972D01*
X231348Y163980D01*
X231035Y164293D01*
X230722Y164918D01*
X230919Y135134D02*
Y131384D01*
X234044D01*
X231904Y57369D02*
Y61119D01*
X235029D01*
X234404Y59244D02*
X231904D01*
Y57369D02*
X235029D01*
X239209Y114756D02*
X239834Y114443D01*
X240147Y113818D01*
X239834Y113193D01*
X239209Y112880D01*
X237022D01*
Y116630D01*
X239209D01*
X239834Y116318D01*
X240147Y115693D01*
X239834Y115068D01*
X239209Y114756D01*
X237022D01*
X240390Y99401D02*
X241015Y99089D01*
X241328Y98464D01*
X241015Y97839D01*
X240390Y97526D01*
X238203D01*
Y101276D01*
X240390D01*
X241015Y100964D01*
X241328Y100339D01*
X241015Y99714D01*
X240390Y99401D01*
X238203D01*
X239778Y50489D02*
Y46739D01*
X242903D01*
X242140Y94977D02*
Y91227D01*
X245265D01*
X247652Y69573D02*
Y73323D01*
X250777D01*
X250152Y71448D02*
X247652D01*
Y69573D02*
X250777D01*
X247652Y77447D02*
Y81197D01*
X250777D01*
X250152Y79322D02*
X247652D01*
Y77447D02*
X250777D01*
X247652Y108550D02*
Y112300D01*
X250777D01*
X250152Y110425D02*
X247652D01*
Y108550D02*
X250777D01*
X250407Y29809D02*
Y33559D01*
X253533D01*
X252907Y31685D02*
X250407D01*
Y29809D02*
X253533D01*
X250407Y164918D02*
Y166168D01*
X250720Y166793D01*
X251033Y167106D01*
X251657Y167418D01*
X252283D01*
X252907Y167106D01*
X253220Y166793D01*
X253533Y166168D01*
Y164918D01*
X253220Y164293D01*
X252907Y163980D01*
X252283Y163668D01*
X251657D01*
X251033Y163980D01*
X250720Y164293D01*
X250407Y164918D01*
X258500Y93496D02*
X259126Y93183D01*
X259438Y92558D01*
X259126Y91933D01*
X258500Y91620D01*
X256313D01*
Y95370D01*
X258500D01*
X259126Y95058D01*
X259438Y94433D01*
X259126Y93808D01*
X258500Y93496D01*
X256313D01*
X260250Y29809D02*
Y33559D01*
X263375D01*
X262750Y31685D02*
X260250D01*
Y29809D02*
X263375D01*
X260841Y128441D02*
Y124691D01*
X263966D01*
X268911Y46552D02*
Y42802D01*
X272037D01*
X270093Y29809D02*
Y33559D01*
X273218D01*
X272593Y31685D02*
X270093D01*
Y29809D02*
X273218D01*
X270093Y164918D02*
Y166168D01*
X270405Y166793D01*
X270718Y167106D01*
X271343Y167418D01*
X271968D01*
X272593Y167106D01*
X272905Y166793D01*
X273218Y166168D01*
Y164918D01*
X272905Y164293D01*
X272593Y163980D01*
X271968Y163668D01*
X271343D01*
X270718Y163980D01*
X270405Y164293D01*
X270093Y164918D01*
X278754Y66424D02*
Y70174D01*
X280629D01*
X281254Y69861D01*
X281567Y69549D01*
X281879Y68924D01*
Y67674D01*
X281567Y67049D01*
X281254Y66736D01*
X280629Y66424D01*
X278754D01*
Y76424D02*
Y80174D01*
X280629D01*
X281254Y79861D01*
X281567Y79549D01*
X281879Y78924D01*
Y77674D01*
X281567Y77049D01*
X281254Y76736D01*
X280629Y76424D01*
X278754D01*
Y86424D02*
Y90174D01*
X280629D01*
X281254Y89861D01*
X281567Y89549D01*
X281879Y88924D01*
Y87674D01*
X281567Y87049D01*
X281254Y86736D01*
X280629Y86424D01*
X278754D01*
Y96424D02*
Y100174D01*
X280629D01*
X281254Y99861D01*
X281567Y99549D01*
X281879Y98924D01*
Y97674D01*
X281567Y97049D01*
X281254Y96736D01*
X280629Y96424D01*
X278754D01*
Y106424D02*
Y110174D01*
X280629D01*
X281254Y109861D01*
X281567Y109549D01*
X281879Y108924D01*
Y107674D01*
X281567Y107049D01*
X281254Y106736D01*
X280629Y106424D01*
X278754D01*
Y116424D02*
Y120174D01*
X280629D01*
X281254Y119861D01*
X281567Y119549D01*
X281879Y118924D01*
Y117674D01*
X281567Y117049D01*
X281254Y116736D01*
X280629Y116424D01*
X278754D01*
X292903Y148545D02*
X292590Y148232D01*
X291965Y147920D01*
X291028D01*
X290403Y148232D01*
X290090Y148545D01*
X289778Y149170D01*
Y150420D01*
X290090Y151045D01*
X290403Y151357D01*
X291028Y151670D01*
X291965D01*
X292590Y151357D01*
X292903Y151045D01*
X301589Y46345D02*
Y50095D01*
X304714D01*
X304089Y48220D02*
X301589D01*
Y46345D02*
X304714D01*
X303163Y82565D02*
Y86315D01*
X306289D01*
X305663Y84441D02*
X303163D01*
Y82565D02*
X306289D01*
X309463Y21935D02*
Y25685D01*
X312588D01*
X311963Y23811D02*
X309463D01*
X312588Y116655D02*
X312275Y116343D01*
X311650Y116030D01*
X310713D01*
X310088Y116343D01*
X309775Y116655D01*
X309463Y117280D01*
Y118530D01*
X309775Y119155D01*
X310088Y119468D01*
X310713Y119780D01*
X311650D01*
X312275Y119468D01*
X312588Y119155D01*
X309463Y135134D02*
Y131384D01*
X312588D01*
Y148545D02*
X312275Y148232D01*
X311650Y147920D01*
X310713D01*
X310088Y148232D01*
X309775Y148545D01*
X309463Y149170D01*
Y150420D01*
X309775Y151045D01*
X310088Y151357D01*
X310713Y151670D01*
X311650D01*
X312275Y151357D01*
X312588Y151045D01*
X309463Y187290D02*
Y191040D01*
X312588D01*
X311963Y189165D02*
X309463D01*
X317730Y82172D02*
Y85922D01*
X320856D01*
X320230Y84047D02*
X317730D01*
Y82172D02*
X320856D01*
X318911Y45951D02*
Y49701D01*
X322037D01*
X321411Y47826D02*
X318911D01*
Y45951D02*
X322037D01*
D02*
D124*
X7730Y39226D03*
X8518Y69541D03*
X8911Y105368D03*
Y126628D03*
X9305Y136077D03*
Y157337D03*
X15998Y15998D03*
Y181352D03*
X16392Y157337D03*
X17179Y105368D03*
X17573Y126628D03*
Y136077D03*
X18360Y69541D03*
X19148Y39226D03*
X28203Y93557D03*
Y146707D03*
Y156943D03*
X28990Y69148D03*
X30171Y39620D03*
X36077Y77809D03*
Y93557D03*
Y146707D03*
Y156943D03*
X41982Y8911D03*
Y28596D03*
X43951Y44344D03*
Y84108D03*
Y93557D03*
Y146707D03*
Y156943D03*
X50250Y28596D03*
X50644Y8911D03*
X51825Y93557D03*
Y146707D03*
X52219Y84108D03*
X59699Y93557D03*
Y146707D03*
Y156943D03*
X60093Y71510D03*
Y84108D03*
X64423Y22297D03*
Y40014D03*
X67100Y12061D03*
X67573Y93557D03*
Y146707D03*
Y156943D03*
X75447Y82927D03*
Y93557D03*
Y146707D03*
X77100Y12061D03*
X83321Y93557D03*
Y146707D03*
X87100Y12061D03*
X92770Y111274D03*
X93951Y63242D03*
X94738Y147494D03*
X97100Y12061D03*
X98675Y178596D03*
X99463Y106943D03*
X102219Y150644D03*
X103793Y31746D03*
X108124Y106549D03*
X108518Y155762D03*
X115998Y151431D03*
X116785Y106549D03*
X119541Y119541D03*
X119935Y143951D03*
X123085Y52612D03*
Y60486D03*
Y68360D03*
Y76234D03*
Y84108D03*
Y91982D03*
Y99856D03*
X124266Y31746D03*
X134108Y157730D03*
X137652Y31352D03*
Y123085D03*
X138833Y110486D03*
X139620Y79778D03*
X145919Y31746D03*
X153793D03*
Y143951D03*
Y157730D03*
X154974Y71510D03*
X155368Y84502D03*
X156943Y62455D03*
X161667Y31352D03*
X162061Y136077D03*
X164030Y90801D03*
X164817Y167179D03*
X168754Y35683D03*
X169541Y63242D03*
X173085Y122297D03*
X173478Y157730D03*
X175841Y31352D03*
X179384Y90407D03*
X180959Y122297D03*
X183715Y31352D03*
X184502Y80959D03*
X188833Y122297D03*
X191589Y31352D03*
X193163Y144738D03*
Y157730D03*
Y167179D03*
X197100Y122297D03*
X199069Y101431D03*
X199463Y31352D03*
X200250Y59305D03*
X205368Y122297D03*
X211274Y117967D03*
X213242Y82533D03*
X216392Y102219D03*
X220329Y20722D03*
X220722Y157730D03*
X220919Y125447D03*
X221904Y51431D03*
X227022Y106943D03*
X228203Y91589D03*
X229778Y40801D03*
X232140Y85289D03*
X237652Y63636D03*
Y71510D03*
Y102612D03*
X240407Y23872D03*
Y157730D03*
X246313Y85683D03*
X250250Y23872D03*
X250841Y118754D03*
X258911Y36864D03*
X260093Y23872D03*
Y157730D03*
X268754Y60486D03*
Y70486D03*
Y80486D03*
Y90486D03*
Y100486D03*
Y110486D03*
X279778Y141982D03*
X291589Y40407D03*
X293163Y76628D03*
X299463Y15998D03*
Y110093D03*
Y125447D03*
Y141982D03*
Y181352D03*
X307730Y76234D03*
X308911Y40014D03*
X0Y0D02*
M02*
