G04 DesignSpark PCB Gerber Version 10.0 Build 5299*
G04 #@! TF.Part,Single*
G04 #@! TF.FilePolarity,Positive*
%FSLAX35Y35*%
%MOIN*%
G04 #@! TA.AperFunction,ComponentDrill*
%ADD119C,0.02362*%
G04 #@! TA.AperFunction,ViaDrill*
%ADD117C,0.02400*%
G04 #@! TA.AperFunction,ComponentDrill*
%ADD121C,0.03150*%
G04 #@! TA.AperFunction,ViaDrill*
%ADD116C,0.03200*%
G04 #@! TA.AperFunction,ComponentDrill*
%ADD118C,0.03937*%
%ADD123C,0.04724*%
%ADD122C,0.05900*%
%ADD120C,0.12598*%
G04 #@! TD.AperFunction*
X0Y0D02*
D02*
D116*
X93951Y63242D03*
X138833Y110486D03*
X164030Y90801D03*
X168754Y35683D03*
X169541Y63242D03*
X199069Y101431D03*
X216392Y102219D03*
X220329Y20722D03*
X220919Y125447D03*
X229778Y40801D03*
X232140Y85289D03*
X250841Y118754D03*
X258911Y36864D03*
X299463Y125447D03*
D02*
D117*
X43951Y44344D03*
X60093Y71510D03*
X139620Y79778D03*
X154974Y71510D03*
X155368Y84502D03*
X156943Y62455D03*
X164817Y167179D03*
X179384Y90407D03*
X184502Y80959D03*
X193163Y167179D03*
X200250Y59305D03*
X211274Y117967D03*
X213242Y82533D03*
X227022Y106943D03*
X228203Y91589D03*
X246313Y85683D03*
D02*
D118*
X28203Y93557D03*
Y146707D03*
X36077Y93557D03*
Y146707D03*
X43951Y93557D03*
Y146707D03*
X51825Y93557D03*
Y146707D03*
X59699Y93557D03*
Y146707D03*
X67100Y12061D03*
X67573Y93557D03*
Y146707D03*
X75447Y93557D03*
Y146707D03*
X77100Y12061D03*
X83321Y93557D03*
Y146707D03*
X87100Y12061D03*
X97100D03*
X268754Y60486D03*
Y70486D03*
Y80486D03*
Y90486D03*
Y100486D03*
Y110486D03*
D02*
D119*
X7730Y39226D03*
X8518Y69541D03*
X8911Y105368D03*
Y126628D03*
X9305Y136077D03*
Y157337D03*
X16392D03*
X17179Y105368D03*
X17573Y126628D03*
Y136077D03*
X18360Y69541D03*
X19148Y39226D03*
X28203Y156943D03*
X28990Y69148D03*
X30171Y39620D03*
X36077Y77809D03*
Y156943D03*
X41982Y8911D03*
Y28596D03*
X43951Y84108D03*
Y156943D03*
X50250Y28596D03*
X50644Y8911D03*
X52219Y84108D03*
X59699Y156943D03*
X60093Y84108D03*
X64423Y22297D03*
Y40014D03*
X67573Y156943D03*
X75447Y82927D03*
X92770Y111274D03*
X94738Y147494D03*
X99463Y106943D03*
X102219Y150644D03*
X103793Y31746D03*
X108124Y106549D03*
X108518Y155762D03*
X115998Y151431D03*
X116785Y106549D03*
X119541Y119541D03*
X119935Y143951D03*
X123085Y52612D03*
Y60486D03*
Y68360D03*
Y76234D03*
Y84108D03*
Y91982D03*
Y99856D03*
X124266Y31746D03*
X137652Y31352D03*
Y123085D03*
X145919Y31746D03*
X153793D03*
Y143951D03*
X161667Y31352D03*
X162061Y136077D03*
X173085Y122297D03*
X175841Y31352D03*
X180959Y122297D03*
X183715Y31352D03*
X188833Y122297D03*
X191589Y31352D03*
X193163Y144738D03*
X197100Y122297D03*
X199463Y31352D03*
X205368Y122297D03*
X221904Y51431D03*
X237652Y63636D03*
Y71510D03*
Y102612D03*
X240407Y23872D03*
X250250D03*
X260093D03*
X291589Y40407D03*
X293163Y76628D03*
X307730Y76234D03*
X308911Y40014D03*
D02*
D120*
X15998Y15998D03*
Y181352D03*
X299463Y15998D03*
Y181352D03*
D02*
D121*
X98675Y178596D03*
D02*
D122*
X134108Y157730D03*
X153793D03*
X173478D03*
X193163D03*
X220722D03*
X240407D03*
X260093D03*
D02*
D123*
X279778Y141982D03*
X299463Y110093D03*
Y141982D03*
X0Y0D02*
M02*
