G05
M48
;#@! TF.GenerationSoftware,DesignSpark,DesignSpark PCB,10.0.5344
;#@! TF.CreationDate,2022-01-30T06:04:52+00:00*
;FILE_FORMAT=3:5
METRIC,TZ
FMAT,2
T1C000.60000
T2C000.60960
T3C000.80000
T4C000.81280
T5C001.00000
T6C001.20000
T7C001.49860
T8C003.20000
%
T001
X196350Y996350
X216350Y1766350
X226350Y2676350
X226350Y3216350
X236350Y3456350
X236350Y3996350
X416350Y3996350
X436350Y2676350
X446350Y3216350
X446350Y3456350
X466350Y1766350
X486350Y996350
X716350Y3986350
X736350Y1756350
X766350Y1006350
X916350Y1976350
X916350Y3986350
X1066350Y226350
X1066350Y726350
X1116350Y2136350
X1116350Y3986350
X1276350Y726350
X1286350Y226350
X1326350Y2136350
X1516350Y3986350
X1526350Y2136350
X1636350Y566350
X1636350Y1016350
X1716350Y3986350
X1916350Y2106350
X2356350Y2826350
X2406350Y3746350
X2526350Y2716350
X2596350Y3826350
X2636350Y806350
X2746350Y2706350
X2756350Y3956350
X2946350Y3846350
X2966350Y2706350
X3036350Y3036350
X3046350Y3656350
X3126350Y1336350
X3126350Y1536350
X3126350Y1736350
X3126350Y1936350
X3126350Y2136350
X3126350Y2336350
X3126350Y2536350
X3156350Y806350
X3496350Y796350
X3496350Y3126350
X3706350Y806350
X3906350Y806350
X3906350Y3656350
X4106350Y796350
X4116350Y3456350
X4396350Y3106350
X4466350Y796350
X4596350Y3106350
X4666350Y796350
X4796350Y3106350
X4866350Y796350
X4906350Y3676350
X5006350Y3106350
X5066350Y796350
X5216350Y3106350
X5636350Y1306350
X6036350Y1616350
X6036350Y1816350
X6036350Y2606350
X6106350Y606350
X6356350Y606350
X6606350Y606350
X7406350Y1026350
X7446350Y1946350
X7816350Y1936350
X7846350Y1016350
T002
X1116350Y1126350
X1526350Y1816350
X3546350Y2026350
X3936350Y1816350
X3946350Y2146350
X3986350Y1586350
X4186350Y4246350
X4556350Y2296350
X4686350Y2056350
X4906350Y4246350
X5086350Y1506350
X5366350Y2996350
X5416350Y2096350
X5766350Y2716350
X5796350Y2326350
X6256350Y2176350
T003
X2506350Y4536350
T004
X2386350Y1606350
X3526350Y2806350
X4166350Y2306350
X4286350Y906350
X4306350Y1606350
X5056350Y2576350
X5496350Y2596350
X5596350Y526350
X5611350Y3186350
X5836350Y1036350
X5896350Y2166350
X6371350Y3016350
X6576350Y936350
X7606350Y3186350
T005
X716350Y2376350
X716350Y3726350
X916350Y2376350
X916350Y3726350
X1116350Y2376350
X1116350Y3726350
X1316350Y2376350
X1316350Y3726350
X1516350Y2376350
X1516350Y3726350
X1704350Y306350
X1716350Y2376350
X1716350Y3726350
X1916350Y2376350
X1916350Y3726350
X1958350Y306350
X2116350Y2376350
X2116350Y3726350
X2212350Y306350
X2466350Y306350
X6826350Y1536350
X6826350Y1790350
X6826350Y2044350
X6826350Y2298350
X6826350Y2552350
X6826350Y2806350
T006
X7106350Y3606350
X7606350Y2796350
X7606350Y3606350
T007
X3406350Y4006350
X3906350Y4006350
X4406350Y4006350
X4906350Y4006350
X5606350Y4006350
X6106350Y4006350
X6606350Y4006350
T008
X406350Y406350
X406350Y4606350
X7606350Y406350
X7606350Y4606350
M30
