G04 DesignSpark PCB Gerber Version 10.0 Build 5299*
G04 #@! TF.Part,Single*
G04 #@! TF.FileFunction,Other,PCB000044r1 - Documentation*
G04 #@! TF.FilePolarity,Positive*
%FSLAX35Y35*%
%MOIN*%
%ADD115C,0.00197*%
G04 #@! TD.AperFunction*
X0Y0D02*
D02*
D115*
X6746Y110388D02*
Y121608D01*
X12652D01*
Y110388D01*
X6746D01*
Y141096D02*
Y152317D01*
X12652D01*
Y141096D01*
X6746D01*
X13045Y110388D02*
Y121608D01*
X18951D01*
Y110388D01*
X13045D01*
X13833Y141096D02*
Y152317D01*
X19738D01*
Y141096D01*
X13833D01*
X39030Y12750D02*
Y23970D01*
X44935D01*
Y12750D01*
X39030D01*
X46510D02*
Y23970D01*
X52415D01*
Y12750D01*
X46510D01*
X61470Y25742D02*
Y36963D01*
X67376D01*
Y25742D01*
X61470D01*
X74167Y30762D02*
X85388D01*
Y24856D01*
X74167D01*
Y30762D01*
Y38242D02*
X85388D01*
Y32337D01*
X74167D01*
Y38242D01*
X76530Y49659D02*
X87750D01*
Y43754D01*
X76530D01*
Y49659D01*
X108419Y34699D02*
X119640D01*
Y28793D01*
X108419D01*
Y34699D01*
X185388Y141785D02*
X174167D01*
Y147691D01*
X185388D01*
Y141785D01*
X206057Y115407D02*
X217278D01*
Y109502D01*
X206057D01*
Y115407D01*
X216589Y37750D02*
Y26530D01*
X210683D01*
Y37750D01*
X216589D01*
Y54285D02*
Y43065D01*
X210683D01*
Y54285D01*
X216589D01*
X217081Y140998D02*
X228301D01*
Y135093D01*
X217081D01*
Y140998D01*
X229482Y109502D02*
X218262D01*
Y115407D01*
X229482D01*
Y109502D01*
X251726Y140604D02*
X262947D01*
Y134699D01*
X251726D01*
Y140604D01*
X253498Y109502D02*
X242278D01*
Y115407D01*
X253498D01*
Y109502D01*
X261569Y39817D02*
X272789D01*
Y33911D01*
X261569D01*
Y39817D01*
X284305Y112553D02*
Y101333D01*
X278400D01*
Y112553D01*
X284305D01*
X294541Y56254D02*
Y45033D01*
X288636D01*
Y56254D01*
X294541D01*
X311864D02*
Y45033D01*
X305959D01*
Y56254D01*
X311864D01*
X0Y0D02*
M02*
