G05
M48
;#@! TF.GenerationSoftware,DesignSpark,DesignSpark PCB,10.0.5344
;#@! TF.CreationDate,2022-01-29T21:37:17+00:00*
;#@! TF.FileFunction,Plated,1,2,PTH
;FILE_FORMAT=3:5
;TYPE=PLATED
INCH,TZ
FMAT,2
T1C000.02362
T2C000.02400
T3C000.03150
T4C000.03200
T5C000.03937
T6C000.04724
T7C000.05900
T8C000.12598
%
T001
X0.07730Y0.39226
X0.08518Y0.69541
X0.08911Y1.05368
X0.08911Y1.26628
X0.09305Y1.36077
X0.09305Y1.57337
X0.16392Y1.57337
X0.17179Y1.05368
X0.17573Y1.26628
X0.17573Y1.36077
X0.18360Y0.69541
X0.19148Y0.39226
X0.28203Y1.56943
X0.28990Y0.69148
X0.30171Y0.39620
X0.36077Y0.77809
X0.36077Y1.56943
X0.41982Y0.08911
X0.41982Y0.28596
X0.43951Y0.84108
X0.43951Y1.56943
X0.50250Y0.28596
X0.50644Y0.08911
X0.52219Y0.84108
X0.59699Y1.56943
X0.60093Y0.84108
X0.64423Y0.22297
X0.64423Y0.40014
X0.67573Y1.56943
X0.75447Y0.82927
X0.92770Y1.11274
X0.94738Y1.47494
X0.99463Y1.06943
X1.02219Y1.50644
X1.03793Y0.31746
X1.08124Y1.06549
X1.08518Y1.55762
X1.15998Y1.51431
X1.16785Y1.06549
X1.19541Y1.19541
X1.19935Y1.43951
X1.23085Y0.52612
X1.23085Y0.60486
X1.23085Y0.68360
X1.23085Y0.76234
X1.23085Y0.84108
X1.23085Y0.91982
X1.23085Y0.99856
X1.24266Y0.31746
X1.37652Y0.31352
X1.37652Y1.23085
X1.45919Y0.31746
X1.53793Y0.31746
X1.53793Y1.43951
X1.61667Y0.31352
X1.62061Y1.36077
X1.73085Y1.22297
X1.75841Y0.31352
X1.80959Y1.22297
X1.83715Y0.31352
X1.88833Y1.22297
X1.91589Y0.31352
X1.93163Y1.44738
X1.97100Y1.22297
X1.99463Y0.31352
X2.05368Y1.22297
X2.21904Y0.51431
X2.37652Y0.63636
X2.37652Y0.71510
X2.37652Y1.02612
X2.40407Y0.23872
X2.50250Y0.23872
X2.60093Y0.23872
X2.91589Y0.40407
X2.93163Y0.76628
X3.07730Y0.76234
X3.08911Y0.40014
T002
X0.43951Y0.44344
X0.60093Y0.71510
X1.39620Y0.79778
X1.54974Y0.71510
X1.55368Y0.84502
X1.56943Y0.62455
X1.64817Y1.67179
X1.79384Y0.90407
X1.84502Y0.80959
X1.93163Y1.67179
X2.00250Y0.59305
X2.11274Y1.17967
X2.13242Y0.82533
X2.27022Y1.06943
X2.28203Y0.91589
X2.46313Y0.85683
T003
X0.98675Y1.78596
T004
X0.93951Y0.63242
X1.38833Y1.10486
X1.64030Y0.90801
X1.68754Y0.35683
X1.69541Y0.63242
X1.99069Y1.01431
X2.16392Y1.02219
X2.20329Y0.20722
X2.20919Y1.25447
X2.29778Y0.40801
X2.32140Y0.85289
X2.50841Y1.18754
X2.58911Y0.36864
X2.99463Y1.25447
T005
X0.28203Y0.93557
X0.28203Y1.46707
X0.36077Y0.93557
X0.36077Y1.46707
X0.43951Y0.93557
X0.43951Y1.46707
X0.51825Y0.93557
X0.51825Y1.46707
X0.59699Y0.93557
X0.59699Y1.46707
X0.67100Y0.12061
X0.67573Y0.93557
X0.67573Y1.46707
X0.75447Y0.93557
X0.75447Y1.46707
X0.77100Y0.12061
X0.83321Y0.93557
X0.83321Y1.46707
X0.87100Y0.12061
X0.97100Y0.12061
X2.68754Y0.60486
X2.68754Y0.70486
X2.68754Y0.80486
X2.68754Y0.90486
X2.68754Y1.00486
X2.68754Y1.10486
T006
X2.79778Y1.41982
X2.99463Y1.10093
X2.99463Y1.41982
T007
X1.34108Y1.57730
X1.53793Y1.57730
X1.73478Y1.57730
X1.93163Y1.57730
X2.20722Y1.57730
X2.40407Y1.57730
X2.60093Y1.57730
T008
X0.15998Y0.15998
X0.15998Y1.81352
X2.99463Y0.15998
X2.99463Y1.81352
M30
